<svg xmlns="http://www.w3.org/2000/svg" viewBox="0 0 64 50.81"><defs><style>.cls-1{fill:#fff;}</style></defs><g id="Layer_2" data-name="Layer 2"><g id="Layer_1-2" data-name="Layer 1"><path class="cls-1" d="M0,27V23.9a20.7,20.7,0,0,0,2.44-1,7.41,7.41,0,0,0,3-4,21.51,21.51,0,0,0,1.38-6.81C6.94,10.2,7,8.3,7,6.41A6.47,6.47,0,0,1,12.25,0a5.19,5.19,0,0,1,.88,0H50.86a6.15,6.15,0,0,1,6,5.17C57.09,7,57,8.79,57,10.59a24.26,24.26,0,0,0,1.79,9c1,2.17,2.45,3.76,4.93,4.15a1,1,0,0,1,.24.09V27a15.61,15.61,0,0,0-2,.69,7.06,7.06,0,0,0-3.3,3.92,20.63,20.63,0,0,0-1.5,6.85C57,40.37,57,42.33,57,44.28a6.39,6.39,0,0,1-6.5,6.53H13.42A6.36,6.36,0,0,1,7,44.35a46.06,46.06,0,0,0-.5-8.7,16.38,16.38,0,0,0-1.79-5.36A5.82,5.82,0,0,0,.43,27.15l-.24-.07Zm5-1.43A11.79,11.79,0,0,1,8.67,30.9a33.66,33.66,0,0,1,1.66,13,3.16,3.16,0,0,0,3.31,3.57H50.43a2.85,2.85,0,0,0,2.85-1.64,5.32,5.32,0,0,0,.38-2.24,39.72,39.72,0,0,1,.82-9.79c.72-3.23,2-6.19,4.61-8.35,0,0,0-.08,0-.14a12.55,12.55,0,0,1-4-6.23A35,35,0,0,1,53.69,6.85a3.14,3.14,0,0,0-3.23-3.52H13.54a3.11,3.11,0,0,0-3.23,3.22c-.06,2.51-.07,5-.29,7.53a18.31,18.31,0,0,1-2.3,7.84C7,23.18,6,24.3,5,25.56Z"/><path class="cls-1" d="M36.62,24.75c.71.22,1.39.37,2,.64a6.63,6.63,0,0,1,4,7.26c-.6,3.7-3.12,6.06-7.07,6.52a33.71,33.71,0,0,1-3.49.14c-3,0-6,0-9,0-.6,0-.79-.17-.79-.78q0-13,0-25.92c0-.61.2-.77.79-.77,3.58,0,7.16,0,10.74,0a8.14,8.14,0,0,1,5.41,1.91,6.15,6.15,0,0,1,2.06,6A5.92,5.92,0,0,1,37,24.63Zm-10,6.53h0v3.94c0,.28,0,.54.41.53,2.39,0,4.78,0,7.16-.15a4.05,4.05,0,0,0,4-3.68,3.87,3.87,0,0,0-1.93-4.19A7.58,7.58,0,0,0,33.59,27c-2.14-.13-4.28-.09-6.42-.14-.45,0-.58.17-.57.59C26.62,28.71,26.6,30,26.6,31.28Zm0-11.79h0c0,1.1,0,2.2,0,3.31,0,.51.1.74.68.72,1.48-.05,3,0,4.44,0a9.69,9.69,0,0,0,2.39-.38,3.73,3.73,0,0,0,2.85-4,3.52,3.52,0,0,0-3-3.49,5.65,5.65,0,0,0-1.42-.19c-1.79,0-3.58,0-5.37,0-.48,0-.6.18-.59.62C26.62,17.2,26.6,18.34,26.6,19.49Z"/></g></g></svg>