<svg xmlns="http://www.w3.org/2000/svg" viewBox="0 0 56 64"><defs><style>.cls-1{fill:#264de3;}.cls-2{fill:#2965f0;}.cls-3{fill:#eaeaea;}.cls-4{fill:#e8e9ea;}.cls-5{fill:#fefefe;}</style></defs><g id="Layer_2" data-name="Layer 2"><g id="Layer_1-2" data-name="Layer 1"><path class="cls-1" d="M28.35,64h-.77l0,0v0c-.09-.11-.23-.11-.35-.14L6.07,57.87a2.27,2.27,0,0,1-.89-.28c-.25-.21-.13-.62-.16-.94q-.31-3.39-.61-6.78c-.2-2.22-.39-4.45-.59-6.67-.22-2.53-.45-5.06-.67-7.59-.2-2.23-.39-4.46-.59-6.68-.22-2.52-.45-5-.67-7.56-.2-2.22-.39-4.45-.59-6.67-.22-2.51-.45-5-.67-7.52C.46,5.25.3,3.31.12,1.38c0-.08.07-.24-.12-.23V0L.42,0H55.51L56,0v.7l0,0,0,0a.82.82,0,0,0-.06.38l-.45,5.09c-.22,2.55-.45,5.09-.67,7.63-.2,2.2-.39,4.41-.59,6.61l-.6,6.82c-.2,2.21-.39,4.42-.59,6.64-.22,2.5-.45,5-.67,7.52s-.43,5-.66,7.48c-.24,2.78-.5,5.56-.73,8.33a.45.45,0,0,1-.37.49L33.46,62.46l-4.88,1.37C28.49,63.86,28.32,63.8,28.35,64ZM28,33.15v6.74c0,1.51,0,3,0,4.52a2.84,2.84,0,0,1-.31-.06L20.6,42.43c-.39-.1-.48-.27-.51-.64-.13-1.63-.28-3.25-.42-4.88,0-.18-.06-.24-.25-.24H12.85c-.19,0-.23,0-.22.24.32,3.54.64,7.07.94,10.61a.3.3,0,0,0,.26.31l1.41.39L28,51.79v6.78c0,.5,0,.53.52.39l5-1.4L46,54.09c.53-.15.57-.22.6-.79.07-.89.15-1.78.23-2.67L47.11,47c.08-.91.15-1.82.23-2.73l.33-3.65.3-3.48.33-3.68.24-2.63c.1-1.19.21-2.38.32-3.58l.3-3.51c.1-1.19.22-2.38.33-3.57s.19-2.37.3-3.55.22-2.38.33-3.57.19-2.37.3-3.55c.12-1.44.27-2.87.39-4.31,0-.49,0-.53-.48-.53H28.49c-.48,0-.49,0-.49.49v6.57l-.49,0H10.79c-.29,0-.39.06-.36.37.2,2.09.4,4.19.57,6.29,0,.35.15.42.49.42q8,0,16,0l.49,0v7.19H12c-.28,0-.37.06-.35.36q.3,3.16.57,6.33c0,.29.1.39.41.38H28Z"/><path class="cls-2" d="M28,11.74V5.17c0-.48,0-.49.49-.49H50.33c.48,0,.53,0,.48.53-.12,1.44-.27,2.87-.39,4.31-.11,1.18-.2,2.36-.3,3.55s-.23,2.38-.33,3.57-.2,2.37-.3,3.55-.23,2.38-.33,3.57l-.3,3.51c-.11,1.2-.22,2.39-.32,3.58l-.24,2.63L48,37.16l-.3,3.48-.33,3.65c-.08.91-.15,1.82-.23,2.73l-.33,3.61c-.08.89-.16,1.78-.23,2.67,0,.57-.07.64-.6.79L33.51,57.56l-5,1.4c-.49.14-.52.11-.52-.39V51.79a.06.06,0,0,1,0,0l.33-.08L41.64,48c.66-.19.66-.19.73-.86,0-.16,0-.33.05-.49.19-2.23.39-4.45.59-6.68l.6-6.82c.2-2.2.39-4.4.59-6.61.22-2.51.45-5,.67-7.55.2-2.26.39-4.53.61-6.79,0-.33,0-.4-.37-.4H28.34l-.35,0A.06.06,0,0,0,28,11.74Z"/><path class="cls-3" d="M28,51.75a.06.06,0,0,0,0,0L15.24,48.22l-1.41-.39a.3.3,0,0,1-.26-.31c-.3-3.54-.62-7.07-.94-10.61,0-.19,0-.24.22-.24h6.57c.19,0,.24.06.25.24.14,1.63.29,3.25.42,4.88,0,.37.12.54.51.64l7.08,1.92a2.84,2.84,0,0,0,.31.06v7.34Z"/><path class="cls-4" d="M28,18.87l-.49,0q-8,0-16,0c-.34,0-.46-.07-.49-.42-.17-2.1-.37-4.2-.57-6.29,0-.31.07-.37.36-.37H27.51l.49,0a.06.06,0,0,1,0,0q0,3.53,0,7Z"/><path class="cls-3" d="M28,33.15H12.67c-.31,0-.39-.09-.41-.38q-.27-3.16-.57-6.33c0-.3.07-.36.35-.36H28v7.09Z"/><path class="cls-2" d="M28,44.44v0c0-1.51,0-3,0-4.52V33.12l.38,0h7.87c.25,0,.34,0,.3.33-.07.58-.1,1.17-.15,1.76-.2,2.24-.41,4.49-.6,6.74a.41.41,0,0,1-.37.44c-1.55.4-3.1.83-4.65,1.26C29.85,43.91,28.93,44.18,28,44.44Z"/><path class="cls-2" d="M28,18.87v-.06l.46,0c3,0,6,0,9,0,.29,0,.38.07.35.37q-.3,3.29-.58,6.57c0,.24-.1.31-.33.31H30.41l-2.41,0V18.87Z"/><path class="cls-5" d="M28,26.09l2.41,0h6.48c.23,0,.31-.07.33-.31q.28-3.28.58-6.57c0-.3-.06-.37-.35-.37-3,0-6,0-9,0l-.46,0q0-3.51,0-7l.35,0H45.11c.32,0,.4.07.37.4-.22,2.26-.41,4.53-.61,6.79-.22,2.52-.45,5-.67,7.55-.2,2.21-.39,4.41-.59,6.61L43,39.93c-.2,2.23-.4,4.45-.59,6.68,0,.16,0,.33-.05.49-.07.67-.07.67-.73.86l-13.3,3.71-.33.08q0-3.64,0-7.31c.93-.26,1.85-.53,2.78-.78,1.55-.43,3.1-.86,4.65-1.26A.41.41,0,0,0,35.8,42c.19-2.25.4-4.5.6-6.74.05-.59.08-1.18.15-1.76,0-.28,0-.33-.3-.33H28.38l-.38,0Z"/></g></g></svg>