<svg xmlns="http://www.w3.org/2000/svg" viewBox="0 0 24 18"><defs><style>.cls-1{fill:#ffff00;}</style></defs><g id="Layer_2" data-name="Layer 2"><g id="Layer_1-2" data-name="Layer 1"><path class="cls-1" d="M0,3A3,3,0,0,1,3,0H21a3,3,0,0,1,3,3V15a3,3,0,0,1-3,3H3a3,3,0,0,1-3-3ZM3,1.5A1.5,1.5,0,0,0,1.5,3v.33L12,9.63l10.5-6.3V3A1.5,1.5,0,0,0,21,1.5ZM15.36,9.36l7.14,4.31V5.08h0L15.36,9.36m7.09,6-8.54-5.16L12,11.37l-1.91-1.14L1.55,15.39A1.5,1.5,0,0,0,3,16.5H21A1.5,1.5,0,0,0,22.45,15.39ZM1.5,13.67,8.64,9.36,1.5,5.07v8.6Z"/></g></g></svg>