<svg xmlns="http://www.w3.org/2000/svg" viewBox="0 0 64 14.25"><defs><style>.cls-1{fill:#fff;}</style></defs><g id="Layer_2" data-name="Layer 2"><g id="Layer_1-2" data-name="Layer 1"><path class="cls-1" d="M20.66,8.68v5.57h-.8V.27h.76V2.43a2.21,2.21,0,0,0,.19-.25A3.83,3.83,0,0,1,24.48,0a4,4,0,0,1,3.8,2.16,6.87,6.87,0,0,1,.16,6.27,3.85,3.85,0,0,1-3.64,2.31,7,7,0,0,1-1.88-.19C21.86,10.3,21.44,9.92,20.66,8.68Zm-.07-3.36c.11.76.16,1.38.29,2a3.31,3.31,0,0,0,3,2.73,3.51,3.51,0,0,0,3.76-1.89,6,6,0,0,0,0-5.41A3.35,3.35,0,0,0,24.08.79a3.25,3.25,0,0,0-3,2.37A16.48,16.48,0,0,0,20.59,5.32Z"/><path class="cls-1" d="M9.05,7.1A4,4,0,0,1,5.3,10.77,4.36,4.36,0,0,1,.92,9a6.86,6.86,0,0,1,.27-7.29A4.35,4.35,0,0,1,5.58.09a4,4,0,0,1,3.33,3.1,17.81,17.81,0,0,1,.38,2.37H.85A4.44,4.44,0,0,0,2.5,9.39a3.76,3.76,0,0,0,4,.22,3.27,3.27,0,0,0,1.61-2C8.34,7,8.34,7,9.05,7.1ZM8.31,4.82a3.71,3.71,0,0,0-3.75-4,3.83,3.83,0,0,0-3.62,4Z"/><path class="cls-1" d="M44.88,5.58H36.45A4.46,4.46,0,0,0,38,9.33a3.78,3.78,0,0,0,3.9.37,3,3,0,0,0,1.76-2.07c.17-.54.44-.68.93-.55a3.87,3.87,0,0,1-2.5,3.4c-3,1-6-.23-6.43-3.93a7.1,7.1,0,0,1,.61-4.09A4.39,4.39,0,0,1,40.93,0,4.19,4.19,0,0,1,44.5,3.19,22.59,22.59,0,0,1,44.88,5.58Zm-.94-.75a4,4,0,0,0-2-3.64,3.42,3.42,0,0,0-3.7.2,4.21,4.21,0,0,0-1.76,3.44Z"/><path class="cls-1" d="M46.14,7.17h.6a11.14,11.14,0,0,0,1,1.82,3.27,3.27,0,0,0,3.09,1,4.9,4.9,0,0,0,1.85-.55,1.73,1.73,0,0,0-.13-3.13A12.45,12.45,0,0,0,50,5.58a8.18,8.18,0,0,1-2.57-.93,2.47,2.47,0,0,1,0-3.82,5.52,5.52,0,0,1,1.79-.7,5.43,5.43,0,0,1,2.77.11A2.86,2.86,0,0,1,54,3.34h-.68s-.06,0-.06-.07A2.42,2.42,0,0,0,50.76.81a4.22,4.22,0,0,0-2.4.35A1.68,1.68,0,0,0,47.3,2.77a1.55,1.55,0,0,0,1.11,1.51c1,.31,1.94.5,2.9.77a11.45,11.45,0,0,1,1.79.61,2.59,2.59,0,0,1,.29,4.28,6.1,6.1,0,0,1-2,.77,5.31,5.31,0,0,1-3.19-.32A3.37,3.37,0,0,1,46.14,7.17Z"/><path class="cls-1" d="M55.74,7.17h.77a7.74,7.74,0,0,0,.23.86,3,3,0,0,0,2.81,2,7.19,7.19,0,0,0,2.3-.32A1.73,1.73,0,0,0,63.17,8,1.66,1.66,0,0,0,62,6.23a19.92,19.92,0,0,0-2.41-.65A7.82,7.82,0,0,1,57,4.64,2.47,2.47,0,0,1,57,.82a6,6,0,0,1,1.79-.7,5.54,5.54,0,0,1,2.77.13,2.83,2.83,0,0,1,2.08,3.09H63s-.06,0-.06-.08c-.09-2-1.75-2.6-3.46-2.46a4.87,4.87,0,0,0-1.62.47,1.55,1.55,0,0,0-.88,1.56,1.51,1.51,0,0,0,1,1.41c.81.3,1.66.48,2.49.71a18.36,18.36,0,0,1,1.93.53A2.34,2.34,0,0,1,64,7.58a2.41,2.41,0,0,1-1.34,2.62,5.56,5.56,0,0,1-5.11,0A3.25,3.25,0,0,1,55.74,7.17Z"/><path class="cls-1" d="M18.33.27l-3.7,4.88,4,5.39A1.32,1.32,0,0,1,17.12,10c-.85-1.29-1.81-2.52-2.72-3.78l-.33-.42C13,7.22,12,8.59,11,10a1.16,1.16,0,0,1-1.44.51l1.2-1.61c.81-1.1,1.61-2.21,2.47-3.28a.63.63,0,0,0,0-1c-1-1.31-2-2.64-3.06-4C10,.58,9.92.45,9.83.33c.73-.24,1-.15,1.44.41l2.51,3.37c.09.12.19.23.31.37C15,3.26,15.92,2.06,16.82.86,17.33.18,17.33.18,18.33.27Z"/><path class="cls-1" d="M31.6,10.57h-.79V.26h.75v2a4.41,4.41,0,0,1,4-2.06c0,.15,0,.27,0,.4s0,.23,0,.36a.88.88,0,0,1-.2,0A3.69,3.69,0,0,0,31.6,4.91c0,1.72,0,3.44,0,5.16Z"/></g></g></svg>