<svg xmlns="http://www.w3.org/2000/svg" viewBox="0 0 42.67 64"><defs><style>.cls-1{fill:#0acf83;}.cls-2{fill:#a259ff;}.cls-3{fill:#f24e1e;}.cls-4{fill:#ff7262;}.cls-5{fill:#1abcfe;}</style></defs><g id="Layer_2" data-name="Layer 2"><g id="Layer_1-2" data-name="Layer 1"><path id="path0_fill" data-name="path0 fill" class="cls-1" d="M10.67,64A10.67,10.67,0,0,0,21.33,53.33V42.67H10.67a10.67,10.67,0,1,0,0,21.33Z"/><path id="path1_fill" data-name="path1 fill" class="cls-2" d="M0,32A10.67,10.67,0,0,1,10.67,21.33H21.33V42.67H10.67A10.67,10.67,0,0,1,0,32Z"/><path id="path1_fill-2" data-name="path1 fill" class="cls-3" d="M0,10.67A10.67,10.67,0,0,1,10.67,0H21.33V21.33H10.67A10.67,10.67,0,0,1,0,10.67Z"/><path id="path2_fill" data-name="path2 fill" class="cls-4" d="M21.33,0H32a10.67,10.67,0,1,1,0,21.33H21.33Z"/><path id="path3_fill" data-name="path3 fill" class="cls-5" d="M42.67,32A10.67,10.67,0,1,1,32,21.33,10.67,10.67,0,0,1,42.67,32Z"/></g></g></svg>