<svg xmlns="http://www.w3.org/2000/svg" viewBox="0 0 19.5 24"><defs><style>.cls-1{fill:#ffff00;}</style></defs><g id="Layer_2" data-name="Layer 2"><g id="Layer_1-2" data-name="Layer 1"><path class="cls-1" d="M19.17.13a.76.76,0,0,1,.33.62V12a.76.76,0,0,1-.47.7l-.28-.7.28.7h0l0,0-.59.22-1.57.53a15.66,15.66,0,0,1-4.07.78,8.44,8.44,0,0,1-3.24-.79h0a7.16,7.16,0,0,0-2.72-.7,13.52,13.52,0,0,0-3.66.72c-.53.16-1.06.35-1.59.54v9.24A.76.76,0,0,1,.75,24,.76.76,0,0,1,0,23.25V.75A.76.76,0,0,1,.75,0,.76.76,0,0,1,1.5.75v.42L2.68.78A15.74,15.74,0,0,1,6.75,0,8.21,8.21,0,0,1,9.93.78l.07,0a7.15,7.15,0,0,0,2.75.69A13.92,13.92,0,0,0,16.41.78c.68-.21,1.35-.45,2-.71h0M18,1.83c-.33.12-.72.25-1.15.38a15,15,0,0,1-4.1.79,8.43,8.43,0,0,1-3.3-.8h0A7.09,7.09,0,0,0,6.75,1.5a13.71,13.71,0,0,0-3.62.72c-.55.17-1.09.35-1.63.55v9.65L2.65,12a15,15,0,0,1,4.1-.78A8.44,8.44,0,0,1,10,12h0a7.16,7.16,0,0,0,2.72.7A13.71,13.71,0,0,0,16.37,12c.55-.17,1.09-.35,1.63-.55V1.83Z"/></g></g></svg>