<svg xmlns="http://www.w3.org/2000/svg" viewBox="0 0 64 64"><defs><style>.cls-1{fill:#fdfefe;}.cls-2{fill:#4c5fa4;}.cls-3{fill:#73c0ce;}</style></defs><g id="Layer_2" data-name="Layer 2"><g id="Layer_1-2" data-name="Layer 1"><circle class="cls-1" cx="32" cy="32" r="32"/><path class="cls-2" d="M35.09,50A25.78,25.78,0,0,1,11.37,31.29c-.24-.85-.22-1.69.77-2s1.47.49,1.74,1.38A22.9,22.9,0,0,0,27.5,45.77a21.81,21.81,0,0,0,7.89,1.66,3.67,3.67,0,0,1,1,.1,1.19,1.19,0,0,1,1,1.27A1.22,1.22,0,0,1,36.2,50C35.8,50,35.4,50,35.09,50Z"/><path class="cls-3" d="M51.15,32.53a7.84,7.84,0,0,1-1.08-.34C47,30.84,44,29.47,41,28.09c-.68-.31-1.45-.57-1.44-1.53S40.28,25.31,41,25c3.23-1.45,6.47-2.87,9.69-4.34a1.36,1.36,0,0,1,1.93.6c.44.84,0,1.45-.82,1.81L45.36,26c-.29.14-.81.11-.76.59s.51.41.82.56c2.1.95,4.2,1.89,6.29,2.87.62.3,1.16.75,1,1.55C52.54,32.16,52.18,32.6,51.15,32.53Z"/><path class="cls-3" d="M33.06,26.54c0,3.59,0,7.18,0,10.77,0,.95-.22,1.83-1.24,1.79s-1.09-1-1.09-1.83c0-7.14,0-14.27,0-21.41,0-.66-.07-1.41.67-1.74.92-.42,1.62.16,1.63,1.38C33.07,19.18,33.06,22.86,33.06,26.54Z"/></g></g></svg>