<svg xmlns="http://www.w3.org/2000/svg" viewBox="0 0 64 64"><defs><style>.cls-1{fill:#f1502f;}</style></defs><g id="Layer_2" data-name="Layer 2"><g id="Layer_1-2" data-name="Layer 1"><path class="cls-1" d="M20.41,9.89c.69.72,1.37,1.43,2.07,2.13l4.18,4.18a1.37,1.37,0,0,0,.17.17,1.36,1.36,0,0,1,.5,1.63,4.79,4.79,0,0,0,2.47,5.36.72.72,0,0,1,.44.73q0,8.23,0,16.47a.78.78,0,0,1-.48.79,4.95,4.95,0,1,0,7.13,5.73,4.81,4.81,0,0,0-2-5.51,1.08,1.08,0,0,1-.52-1q0-7.8,0-15.6V24c.28.26.49.45.7.66,1.84,1.84,3.67,3.69,5.52,5.52a.6.6,0,0,1,.18.69,5,5,0,0,0,8.59,4.59,4.84,4.84,0,0,0,.42-5.59,4.91,4.91,0,0,0-5.44-2.32.7.7,0,0,1-.79-.23c-1.95-2-3.9-3.94-5.88-5.87a1.82,1.82,0,0,1-.65-1.8,4.87,4.87,0,0,0-6-5.44c-.55.13-.73-.2-1-.45-1.49-1.45-3-2.92-4.42-4.39-.76-.77-1.51-1.56-2.3-2.37.23-.25.45-.48.68-.71q2.55-2.56,5.11-5.11A4.1,4.1,0,0,1,35,1.39c1.33,1.37,2.71,2.71,4.06,4.07l4.8,4.8,6.83,6.83,7.19,7.19c1.59,1.59,3.17,3.19,4.77,4.77a4.06,4.06,0,0,1,0,6q-4.41,4.44-8.84,8.86c-2.45,2.45-4.92,4.9-7.37,7.36L35,62.75a4.07,4.07,0,0,1-5.82,0Q25.07,58.71,21,54.57L15.57,49.2Q12,45.58,8.33,42L3,36.59C2.21,35.84,1.46,35.1.79,34.3A4.05,4.05,0,0,1,1.26,29q3.59-3.54,7.13-7.1l7.73-7.74,4-4Z"/></g></g></svg>