<svg xmlns="http://www.w3.org/2000/svg" viewBox="0 0 64 61.91"><defs><style>.cls-1{fill:#e0e0e0;}</style></defs><g id="Layer_2" data-name="Layer 2"><g id="Layer_1-2" data-name="Layer 1"><path class="cls-1" d="M37.9,45.8c1.4-.27,2.7-.47,4-.79,3.82-1,7-2.83,8.8-6.51a17.44,17.44,0,0,0,1.2-12.14,10.75,10.75,0,0,0-2.34-4.31A1,1,0,0,1,49.3,21a11.23,11.23,0,0,0-.37-7.37,1,1,0,0,0-.77-.5,9.24,9.24,0,0,0-4.3,1.12c-1.18.58-2.29,1.28-3.46,1.89a1.33,1.33,0,0,1-.89.15,31.44,31.44,0,0,0-15.06,0,1.49,1.49,0,0,1-1-.21,18.62,18.62,0,0,0-6.65-2.88l-.22,0c-1.28-.19-1.41-.11-1.78,1.1a11.56,11.56,0,0,0-.09,7,.81.81,0,0,1-.13.66c-2.87,3.31-3.43,7.2-2.81,11.34a19.52,19.52,0,0,0,1.1,4.33C14.47,41.7,17.79,43.92,22,45c1.29.33,2.62.54,4,.82a7.58,7.58,0,0,0-1.89,3.92c0,.17-.27.35-.46.42-3.41,1.31-6.72.75-8.83-2.73a6.43,6.43,0,0,0-4.29-3.24,4,4,0,0,0-1.5,0c-.67.14-.77.51-.32,1a3.22,3.22,0,0,0,.74.64A8.72,8.72,0,0,1,13,50.28a6.94,6.94,0,0,0,6.42,4.45A43.7,43.7,0,0,0,24,54.59c0,1.94.06,4,0,6,0,1-1.14,1.52-2.35,1.12A29,29,0,0,1,14,58C4.38,51.19-.49,41.87,0,30.08A31.56,31.56,0,0,1,25.91.59,32,32,0,0,1,63,23.82,31.74,31.74,0,0,1,42.44,61.73c-1.59.53-2.51-.14-2.5-1.82,0-2.66,0-5.33,0-8A8.35,8.35,0,0,0,37.9,45.8Z"/></g></g></svg>