<svg xmlns="http://www.w3.org/2000/svg" viewBox="0 0 720 480"><defs><style>.cls-1{fill:#404040;}.cls-2{fill:#262626;}.cls-3{fill:#3c00b3;}.cls-4{fill:#cccccc;}.cls-5{fill:#999999;}.cls-6{fill:#ffff00;}</style></defs><g id="Layer_2" data-name="Layer 2"><g id="Layer_1-2" data-name="Layer 1"><rect class="cls-1" width="720" height="480" rx="16"/><rect class="cls-2" x="8" y="8" width="704" height="464" rx="12"/><rect x="24" y="24" width="672" height="432" rx="8"/><rect class="cls-1" x="28" y="28" width="664" height="424" rx="4"/><path class="cls-2" d="M564,28H688a4,4,0,0,1,4,4V448a4,4,0,0,1-4,4H564a0,0,0,0,1,0,0V28A0,0,0,0,1,564,28Z"/><circle class="cls-3" cx="592" cy="104" r="12"/><rect class="cls-4" x="580" y="52" width="96" height="16" rx="8"/><rect class="cls-5" x="180" y="74" width="96" height="24" rx="12"/><rect class="cls-5" x="288" y="74" width="48" height="24" rx="12"/><rect class="cls-5" x="348" y="74" width="32" height="24" rx="12"/><rect class="cls-4" x="612" y="96" width="64" height="6" rx="3"/><rect class="cls-5" x="612" y="106" width="48" height="6" rx="3"/><rect class="cls-5" x="580" y="141" width="96" height="6" rx="3"/><rect class="cls-5" x="580" y="159" width="96" height="6" rx="3"/><rect class="cls-5" x="580" y="177" width="96" height="6" rx="3"/><rect class="cls-5" x="580" y="195" width="96" height="6" rx="3"/><rect class="cls-5" x="580" y="213" width="96" height="6" rx="3"/><rect class="cls-4" x="580" y="422" width="96" height="6" rx="3"/><rect class="cls-4" x="180" y="52" width="96" height="6" rx="3"/><rect class="cls-2" x="180" y="212" width="360" height="192" rx="8"/><rect class="cls-2" x="180" y="132" width="360" height="64" rx="8"/><rect class="cls-4" x="212" y="156" width="64" height="6" rx="3"/><rect class="cls-5" x="212" y="166" width="48" height="6" rx="3"/><rect class="cls-4" x="300" y="156" width="64" height="6" rx="3"/><rect class="cls-5" x="300" y="166" width="48" height="6" rx="3"/><rect class="cls-4" x="444" y="156" width="64" height="6" rx="3"/><rect class="cls-5" x="444" y="166" width="48" height="6" rx="3"/><path class="cls-3" d="M180,248H356a16,16,0,0,1,16,16v0a16,16,0,0,1-16,16H180a0,0,0,0,1,0,0V248A0,0,0,0,1,180,248Z"/><path class="cls-6" d="M180,336h80a16,16,0,0,1,16,16v0a16,16,0,0,1-16,16H180a0,0,0,0,1,0,0V336a0,0,0,0,1,0,0Z"/><rect class="cls-6" x="232" y="292" width="128" height="32" rx="16"/><rect class="cls-3" x="372" y="292" width="64" height="32" rx="16"/><rect class="cls-3" x="416" y="336" width="64" height="32" rx="16"/><rect class="cls-6" x="384" y="248" width="32" height="32" rx="16"/><rect class="cls-6" x="448" y="292" width="32" height="32" rx="16"/><rect class="cls-3" x="288" y="336" width="32" height="32" rx="16"/></g></g></svg>