<svg xmlns="http://www.w3.org/2000/svg" viewBox="0 0 56 64"><defs><style>.cls-1{fill:#e34d26;}.cls-2{fill:#ef6529;}.cls-3{fill:#eae8e8;}.cls-4{fill:#fdfdfd;}</style></defs><g id="Layer_2" data-name="Layer 2"><g id="Layer_1-2" data-name="Layer 1"><path class="cls-1" d="M28,0H55.49C56,0,56,0,56,.54c-.15,1.59-.28,3.19-.42,4.78-.21,2.32-.43,4.64-.64,7-.13,1.48-.24,3-.37,4.43-.21,2.33-.43,4.66-.64,7-.13,1.47-.25,2.93-.38,4.39q-.26,3-.53,6c-.17,1.91-.32,3.83-.5,5.73-.24,2.76-.5,5.51-.75,8.27L51.15,55c-.07.81-.15,1.62-.21,2.43,0,.31-.27.28-.44.33-1.35.39-2.71.76-4.07,1.14l-8.72,2.43c-3.1.86-6.19,1.71-9.28,2.61a2.31,2.31,0,0,1-1.36-.14L15.88,60.66,5.49,57.77A.5.5,0,0,1,5,57.25c-.23-2.8-.5-5.59-.75-8.38-.2-2.34-.39-4.69-.6-7-.25-2.76-.51-5.53-.75-8.3-.21-2.32-.4-4.64-.6-7s-.43-4.67-.64-7c-.13-1.47-.25-2.95-.38-4.42-.17-2-.35-3.94-.52-5.91S.47,5.39.3,3.47c-.09-1-.19-2-.28-3C0,0,0,0,.44,0Zm-.16,44.42c0-.08-.05-.15-.14-.06h-.18c-2.32-.63-4.64-1.28-7-1.89a.55.55,0,0,1-.48-.59c-.12-1.6-.28-3.19-.41-4.79,0-.3-.13-.38-.41-.38q-3.15,0-6.29,0c-.31,0-.38.09-.35.4q.29,3,.54,5.94c.13,1.49.25,3,.38,4.46,0,.18.06.32.27.37l8.62,2.41L28,51.84v6.93c0,.24,0,.34.32.28s.73-.21,1.1-.3c.95-.25,1.9-.52,2.85-.79.78-.21,1.56-.45,2.35-.65s1.61-.46,2.42-.69c.43-.12.86-.21,1.28-.33.78-.23,1.55-.47,2.33-.69s1.77-.48,2.66-.72,1.71-.51,2.57-.73c.59-.15.59-.12.72-.71a4.07,4.07,0,0,0,.06-.61c0-.46,0-.92.08-1.37.16-1.3.27-2.59.35-3.89,0-.58.14-1.15.17-1.73.05-1,.19-2,.26-3,0-.66.18-1.31.17-2a13.43,13.43,0,0,1,.13-1.41c.1-1,.21-2,.27-3.06,0-.65.17-1.29.19-1.94a6.11,6.11,0,0,1,0-1.05c.21-1.12.22-2.26.33-3.38.07-.66.15-1.32.18-2,.06-1.09.24-2.18.28-3.27,0-.59.13-1.18.17-1.77,0-.32,0-.65.06-1,.18-1.19.23-2.38.33-3.57,0-.62.15-1.24.18-1.87,0-1,.2-2,.26-3.06,0-.68.18-1.34.18-2a3.87,3.87,0,0,1,.06-.83,22.69,22.69,0,0,0,.25-2.59c.09-1,.21-2,.26-3,0-.31,0-.36-.31-.36H28.36c-.28,0-.37.07-.37.37,0,2.22,0,4.44,0,6.66l-.54,0H11c-.55,0-.55,0-.55.53-.09.07-.07.11,0,.15a3.55,3.55,0,0,1,.06.8c-.11.12-.13.22,0,.29,0,.11,0,.22,0,.33.13,1.43.25,2.87.37,4.31.22,2.42.43,4.83.65,7.25.13,1.47.27,2.94.4,4.42.08.93.15,1.86.22,2.79-.09.08-.09.16,0,.21,0,.31.21.31.44.31H27.51a1.42,1.42,0,0,1,.5,0V44.43Z"/><path class="cls-2" d="M28,11.76c0-2.22,0-4.44,0-6.66,0-.3.09-.37.37-.37h22.2c.28,0,.33,0,.31.36,0,1-.17,2-.26,3a22.69,22.69,0,0,1-.25,2.59,3.87,3.87,0,0,0-.06.83c0,.68-.14,1.34-.18,2-.06,1-.21,2-.26,3.06,0,.63-.13,1.25-.18,1.87-.1,1.19-.15,2.38-.33,3.57-.05.32,0,.65-.06,1,0,.59-.15,1.18-.17,1.77,0,1.09-.22,2.18-.28,3.27,0,.67-.11,1.33-.18,2-.11,1.12-.12,2.26-.33,3.38a6.11,6.11,0,0,0,0,1.05c0,.65-.15,1.29-.19,1.94-.06,1-.17,2-.27,3.06a13.43,13.43,0,0,0-.13,1.41c0,.67-.13,1.32-.17,2-.07,1-.21,2-.26,3,0,.58-.14,1.15-.17,1.73-.08,1.3-.19,2.59-.35,3.89-.05.45-.06.91-.08,1.37a4.07,4.07,0,0,1-.06.61c-.13.59-.13.56-.72.71-.86.22-1.71.49-2.57.73s-1.78.47-2.66.72-1.55.46-2.33.69c-.42.12-.85.21-1.28.33-.81.23-1.61.49-2.42.69s-1.57.44-2.35.65c-1,.27-1.9.54-2.85.79-.37.09-.73.22-1.1.3S28,59,28,58.77v-7a17.6,17.6,0,0,0,2-.52c4-1.12,8-2.25,12-3.36a.4.4,0,0,0,.34-.42c.1-1.29.22-2.58.34-3.87.17-1.92.35-3.84.52-5.76s.33-3.82.5-5.73c.08-.94.15-1.88.22-2.82a.39.39,0,0,0,.05-.36l0-.66a.17.17,0,0,0,0-.22,4.55,4.55,0,0,0,.1-1.17.5.5,0,0,0,.06-.43c.09-.27,0-.39-.29-.35a2.46,2.46,0,0,1-.47,0H28.4l-.39,0V18.88a.13.13,0,0,0,0-.06l.43,0H44.54c.28,0,.41-.06.42-.38,0-.58.09-1.16.14-1.74.14-1.51.27-3,.42-4.53,0-.37-.09-.43-.43-.43H28.36l-.36,0S28,11.78,28,11.76Z"/><path class="cls-3" d="M28,26.06v.07c0,2.34,0,4.67,0,7,0,0,0,0,0,.06a1.42,1.42,0,0,0-.5,0H12.7c-.23,0-.43,0-.44-.31a.17.17,0,0,0,0-.21c-.07-.93-.14-1.86-.22-2.79-.13-1.48-.27-2.95-.4-4.42-.22-2.42-.43-4.83-.65-7.25-.12-1.44-.24-2.88-.37-4.31,0-.11,0-.22,0-.33a.28.28,0,0,0,0-.29,3.55,3.55,0,0,0-.06-.8.1.1,0,0,0,0-.15c0-.53,0-.53.55-.53H27.46l.54,0s0,0,0,0v7a.13.13,0,0,1,0,.06l-.14,0H18.38c-.32,0-.34.14-.24.39a.09.09,0,0,0,0,.14l0,.73c0,.1-.05.2,0,.29.11,1.81.3,3.62.46,5.43,0,.29.2.27.4.27h8.55C27.77,26.09,27.89,26.07,28,26.06Z"/><path class="cls-3" d="M28,51.77v.07l-5.55-1.56-8.62-2.41c-.21,0-.26-.19-.27-.37-.13-1.49-.25-3-.38-4.46q-.25-3-.54-5.94c0-.31,0-.4.35-.4q3.14,0,6.29,0c.28,0,.39.08.41.38.13,1.6.29,3.19.41,4.79a.55.55,0,0,0,.48.59c2.32.61,4.64,1.26,7,1.89h.18a.1.1,0,0,0,.14.06H28a.09.09,0,0,0,0,0Q28,48.13,28,51.77Z"/><path class="cls-2" d="M28,44.43V33.2s0,0,0-.06.28,0,.43,0H36c.62,0,.61,0,.55.64-.15,1.58-.28,3.17-.43,4.75-.11,1.17-.22,2.34-.32,3.52,0,.2-.08.31-.29.34a2.17,2.17,0,0,0-.42.11l-6.82,1.86a.11.11,0,0,0-.14.06l-.15,0A.09.09,0,0,1,28,44.43Z"/><path class="cls-2" d="M10.51,13.26a.28.28,0,0,1,0,.29C10.38,13.48,10.4,13.38,10.51,13.26Z"/><path class="cls-2" d="M12.23,32.65a.17.17,0,0,1,0,.21C12.14,32.81,12.14,32.73,12.23,32.65Z"/><path class="cls-2" d="M10.43,12.31a.1.1,0,0,1,0,.15C10.36,12.42,10.34,12.38,10.43,12.31Z"/><path class="cls-2" d="M27.86,44.42a.1.1,0,0,1-.14-.06C27.81,44.27,27.84,44.34,27.86,44.42Z"/><path class="cls-4" d="M28.29,44.39l6.82-1.86a2.17,2.17,0,0,1,.42-.11c.21,0,.27-.14.29-.34.1-1.18.21-2.35.32-3.52.15-1.58.28-3.17.43-4.75.06-.64.07-.64-.55-.64H28.43c-.15,0-.29,0-.43,0v-7l.39,0H43.48a2.46,2.46,0,0,0,.47,0c.29,0,.38.08.29.35s-.12.28-.06.43a4.55,4.55,0,0,1-.1,1.17c-.13.06-.13.13,0,.22l0,.66c-.18.09-.14.22-.05.36-.07.94-.14,1.88-.22,2.82-.17,1.91-.33,3.82-.5,5.73s-.35,3.84-.52,5.76c-.12,1.29-.24,2.58-.34,3.87a.4.4,0,0,1-.34.42c-4,1.11-8,2.24-12,3.36a17.6,17.6,0,0,1-2,.52q0-3.65,0-7.29l.15,0C28.24,44.56,28.27,44.49,28.29,44.39Z"/><path class="cls-4" d="M28,18.82v-7l.36,0H45.09c.34,0,.47.06.43.43-.15,1.51-.28,3-.42,4.53-.05.58-.12,1.16-.14,1.74,0,.32-.14.38-.42.38H28.42Z"/><path class="cls-1" d="M28,26.06c-.12,0-.24,0-.36,0H19.1c-.2,0-.37,0-.4-.27-.16-1.81-.35-3.62-.46-5.43.1-.11.12-.21,0-.29l0-.73c.1-.06.08-.11,0-.14-.1-.25-.08-.39.24-.39h9.48l.14,0C28,21.27,28,23.67,28,26.06Z"/><path class="cls-3" d="M44.18,26.88c-.06-.15-.14-.31.06-.43A.5.5,0,0,1,44.18,26.88Z"/><path class="cls-3" d="M44,29.29c-.09-.14-.13-.27.05-.36A.39.39,0,0,1,44,29.29Z"/><path class="cls-3" d="M44.06,28.27c-.11-.09-.11-.16,0-.22A.17.17,0,0,1,44.06,28.27Z"/><path class="cls-2" d="M18.2,20.11c.16.08.14.18,0,.29C18.15,20.31,18.18,20.21,18.2,20.11Z"/><path class="cls-2" d="M18.14,19.24c.1,0,.12.08,0,.14A.09.09,0,0,1,18.14,19.24Z"/><path class="cls-3" d="M28.29,44.39c0,.1-.05.17-.14.06A.11.11,0,0,1,28.29,44.39Z"/></g></g></svg>