<svg xmlns="http://www.w3.org/2000/svg" viewBox="0 0 64 64"><defs><style>.cls-1{fill:#300;}.cls-2{fill:#ff9a00;}</style></defs><g id="Layer_2" data-name="Layer 2"><g id="Layer_1-2" data-name="Layer 1"><g id="Layer_2-2" data-name="Layer 2"><g id="Surfaces"><g id="Drawing_Surface" data-name="Drawing Surface"><g id="Outline_no_shadow" data-name="Outline no shadow"><path class="cls-1" d="M11.33,0H52.67A11.47,11.47,0,0,1,64,11.62V52.38A11.47,11.47,0,0,1,52.67,64H11.33A11.47,11.47,0,0,1,0,52.38V11.62A11.47,11.47,0,0,1,11.33,0Z"/></g></g></g><g id="Outlined_Mnemonics_Logos" data-name="Outlined Mnemonics Logos"><g id="Ai"><path class="cls-2" d="M31,38.4H21.09l-2,6.43a.48.48,0,0,1-.51.38h-5c-.3,0-.38-.16-.3-.49l8.59-25.36c.08-.27.16-.57.27-.9a10.34,10.34,0,0,0,.16-1.78.27.27,0,0,1,.21-.3h6.91c.21,0,.32.08.34.22l9.74,28.17c.08.3,0,.44-.27.44H33.63a.4.4,0,0,1-.43-.3Zm-8.37-5.55h6.77c-.16-.58-.37-1.26-.61-2s-.48-1.53-.72-2.35-.51-1.67-.77-2.52-.51-1.64-.72-2.43-.4-1.48-.59-2.14H26A35.21,35.21,0,0,1,25,25c-.4,1.31-.8,2.68-1.23,4.05S23,31.7,22.64,32.85Z"/><path class="cls-2" d="M45.28,21.06a3.24,3.24,0,0,1-2.37-1A3.54,3.54,0,0,1,42,17.59a3.26,3.26,0,0,1,1-2.44,3.36,3.36,0,0,1,2.37-1,3.16,3.16,0,0,1,2.43,1,3.48,3.48,0,0,1,.88,2.44,3.47,3.47,0,0,1-.93,2.51A3.11,3.11,0,0,1,45.28,21.06Zm-3,23.74V23.74c0-.27.11-.38.35-.38h5.28c.24,0,.35.13.35.38V44.8c0,.3-.11.44-.35.44H42.69A.39.39,0,0,1,42.29,44.8Z"/></g></g></g></g></g></svg>