<svg xmlns="http://www.w3.org/2000/svg" viewBox="0 0 64 64"><defs><style>.cls-1{fill:#efda4f;}.cls-2{fill:#fbf7de;}.cls-3{fill:#333430;}</style></defs><g id="Layer_2" data-name="Layer 2"><g id="Layer_1-2" data-name="Layer 1"><path class="cls-1" d="M63.91,64H.33C.06,64,0,63.94,0,63.67Q0,31.87,0,.08H63.68c.17,0,.24.06.24.23s0,.23,0,.35v62.8C63.92,63.64,63.91,63.82,63.91,64Zm-15-5.06a14.29,14.29,0,0,0,4-.55,8.13,8.13,0,0,0,5.21-4.16,8.7,8.7,0,0,0,.76-4.5A7.76,7.76,0,0,0,55.92,44a17.28,17.28,0,0,0-3.35-2.07c-1.51-.74-3.1-1.31-4.6-2.07a5.29,5.29,0,0,1-1.56-1.09,2.61,2.61,0,0,1,1-4.25,3.7,3.7,0,0,1,3.89.85,6,6,0,0,1,1,1.3c.08.14.13.23.32.11L57,34c.14-.09.15-.17.07-.31a8.55,8.55,0,0,0-4.55-4,11.41,11.41,0,0,0-6.72-.25A7.53,7.53,0,0,0,41.59,32c-2.07,2.56-2.22,5.43-1.17,8.42a8.26,8.26,0,0,0,3.66,4.12,29.17,29.17,0,0,0,4.05,2c.88.38,1.77.75,2.61,1.21.28.15.55.32.82.5a2.76,2.76,0,0,1,1.3,2.73,2.63,2.63,0,0,1-1.93,2.28,6.16,6.16,0,0,1-6.19-1,7.75,7.75,0,0,1-1.69-2c-.11-.18-.2-.21-.39-.1-1.45.85-2.9,1.7-4.36,2.53-.26.14-.25.27-.12.49a10.75,10.75,0,0,0,3.06,3.51A12.86,12.86,0,0,0,48.93,58.93ZM34.76,40.5c0-3.58,0-7.16,0-10.74,0-.32-.09-.39-.4-.39-1,0-1.92,0-2.88,0-.81,0-1.61,0-2.42,0-.25,0-.35.07-.32.32a2.09,2.09,0,0,1,0,.25V49.56a6.74,6.74,0,0,1-.31,2.32,2.29,2.29,0,0,1-1.14,1.34,3.71,3.71,0,0,1-4.37-.84,9,9,0,0,1-1.1-1.64c-.11-.2-.2-.25-.41-.12Q19.24,52,17,53.29c-.19.11-.21.21-.12.39A8.91,8.91,0,0,0,21.31,58a11.35,11.35,0,0,0,8,.41,7.11,7.11,0,0,0,4.93-4.86,12.33,12.33,0,0,0,.53-3.82Z"/><path class="cls-2" d="M63.91,64c0-.17,0-.35,0-.53V.66c0-.12,0-.24,0-.35s-.07-.24-.24-.23H0S0,0,0,0H63.66c.27,0,.33.06.33.33Q64,32,64,63.67C64,63.78,64.06,63.91,63.91,64Z"/><path class="cls-3" d="M48.93,58.93a12.86,12.86,0,0,1-7.69-2.31,10.75,10.75,0,0,1-3.06-3.51c-.13-.22-.14-.35.12-.49,1.46-.83,2.91-1.68,4.36-2.53.19-.11.28-.08.39.1a7.75,7.75,0,0,0,1.69,2,6.16,6.16,0,0,0,6.19,1,2.63,2.63,0,0,0,1.93-2.28,2.76,2.76,0,0,0-1.3-2.73c-.27-.18-.54-.35-.82-.5-.84-.46-1.73-.83-2.61-1.21a29.17,29.17,0,0,1-4.05-2,8.26,8.26,0,0,1-3.66-4.12c-1.05-3-.9-5.86,1.17-8.42a7.53,7.53,0,0,1,4.16-2.57,11.41,11.41,0,0,1,6.72.25,8.55,8.55,0,0,1,4.55,4c.08.14.07.22-.07.31l-4.3,2.77c-.19.12-.24,0-.32-.11a6,6,0,0,0-1-1.3,3.7,3.7,0,0,0-3.89-.85,2.61,2.61,0,0,0-1,4.25A5.29,5.29,0,0,0,48,39.81c1.5.76,3.09,1.33,4.6,2.07A17.28,17.28,0,0,1,55.92,44a7.76,7.76,0,0,1,2.94,5.77,8.7,8.7,0,0,1-.76,4.5,8.13,8.13,0,0,1-5.21,4.16A14.29,14.29,0,0,1,48.93,58.93Z"/><path class="cls-3" d="M34.76,40.5v9.24a12.33,12.33,0,0,1-.53,3.82,7.11,7.11,0,0,1-4.93,4.86,11.35,11.35,0,0,1-8-.41,8.91,8.91,0,0,1-4.4-4.33c-.09-.18-.07-.28.12-.39q2.2-1.32,4.4-2.67c.21-.13.3-.08.41.12a9,9,0,0,0,1.1,1.64,3.71,3.71,0,0,0,4.37.84,2.29,2.29,0,0,0,1.14-1.34,6.74,6.74,0,0,0,.31-2.32V29.94a2.09,2.09,0,0,0,0-.25c0-.25.07-.32.32-.32.81,0,1.61,0,2.42,0,1,0,1.92,0,2.88,0,.31,0,.4.07.4.39C34.75,33.34,34.76,36.92,34.76,40.5Z"/></g></g></svg>