<?xml version="1.0" encoding="utf-8"?>
<!-- Generator: Adobe Illustrator 25.1.0, SVG Export Plug-In . SVG Version: 6.00 Build 0)  -->
<svg version="1.1" id="Layer_1" xmlns="http://www.w3.org/2000/svg" xmlns:xlink="http://www.w3.org/1999/xlink" x="0px" y="0px"
	 viewBox="0 0 32 32" style="enable-background:new 0 0 32 32;" xml:space="preserve">
<style type="text/css">
	.st0{fill:#0077B7;}
</style>
<path class="st0" d="M29.1,0H2.9C1.3,0,0,1.3,0,2.9v26.2C0,30.7,1.3,32,2.9,32h26.2c1.6,0,2.9-1.3,2.9-2.9V2.9C32,1.3,30.7,0,29.1,0
	z M9.9,27.6c0,0.5-0.4,0.8-0.8,0.8H5.5c-0.5,0-0.8-0.4-0.8-0.8v-15c0-0.5,0.4-0.8,0.8-0.8h3.6c0.5,0,0.8,0.4,0.8,0.8V27.6z
	 M7.3,10.3c-1.9,0-3.4-1.5-3.4-3.4s1.5-3.4,3.4-3.4s3.4,1.5,3.4,3.4S9.1,10.3,7.3,10.3z M28.6,27.7c0,0.4-0.3,0.8-0.8,0.8H24
	c-0.4,0-0.8-0.3-0.8-0.8v-7.1c0-1.1,0.3-4.6-2.7-4.6c-2.4,0-2.9,2.4-2.9,3.5v8.1c0,0.4-0.3,0.8-0.8,0.8h-3.7c-0.4,0-0.8-0.3-0.8-0.8
	V12.5c0-0.4,0.3-0.8,0.8-0.8h3.7c0.4,0,0.8,0.3,0.8,0.8v1.3c0.9-1.3,2.2-2.3,5-2.3c6.2,0,6.1,5.8,6.1,8.9L28.6,27.7L28.6,27.7z"/>
</svg>
