<svg xmlns="http://www.w3.org/2000/svg" viewBox="0 0 18 24"><defs><style>.cls-1{fill:#ffff00;}</style></defs><g id="Layer_2" data-name="Layer 2"><g id="Layer_1-2" data-name="Layer 1"><path class="cls-1" d="M9,0A9,9,0,0,0,0,9c0,6.47,9,15,9,15s9-8.53,9-15A9,9,0,0,0,9,0Zm3.31,18A46.64,46.64,0,0,1,9,21.87,46.64,46.64,0,0,1,5.69,18a29.46,29.46,0,0,1-2.94-4.61A10.46,10.46,0,0,1,1.5,9a7.5,7.5,0,0,1,15,0,10.46,10.46,0,0,1-1.25,4.41A29.46,29.46,0,0,1,12.31,18Z"/><path class="cls-1" d="M9,4.5A4.5,4.5,0,1,0,13.5,9,4.49,4.49,0,0,0,9,4.5ZM9,12a3,3,0,1,1,3-3A3,3,0,0,1,9,12Z"/></g></g></svg>