<svg xmlns="http://www.w3.org/2000/svg" viewBox="0 0 72 144"><defs><style>.cls-1{fill:#cccccc;}.cls-2{fill:#ffff00;}</style></defs><g id="Layer_2" data-name="Layer 2"><g id="Layer_1-2" data-name="Layer 1"><polygon class="cls-1" points="6.76 35.56 14.4 43.2 6.76 50.84 6.76 45.16 0 38.4 0 67.2 24 43.2 0 19.2 0 28.8 6.76 35.56"/><polygon class="cls-1" points="28.8 57.6 14.4 72 28.8 86.4 39.81 75.39 27.39 75.39 24 72 27.39 68.61 49.41 68.61 52.8 72 28.8 96 4.8 72 28.8 48 42.65 61.85 33.05 61.85 28.8 57.6"/><polygon class="cls-1" points="0 76.8 0 105.6 6.78 98.83 6.78 93.18 14.4 100.8 0 115.2 0 137.22 0 144 6.78 137.22 6.78 118.02 24 100.8 0 76.8"/><polygon class="cls-2" points="0 9.6 62.4 72 13.54 120.86 13.54 130.46 72 72 0 0 0 9.6"/></g></g></svg>