<svg xmlns="http://www.w3.org/2000/svg" viewBox="0 0 32 64"><defs><style>.cls-1{fill:#cccccc;}.cls-2{fill:#ffff00;}</style></defs><g id="Layer_2" data-name="Layer 2"><g id="Layer_1-2" data-name="Layer 1"><polygon class="cls-1" points="3 15.8 6.4 19.2 3 22.59 3 20.07 0 17.07 0 29.87 10.67 19.2 0 8.53 0 12.8 3 15.8"/><polygon class="cls-1" points="12.8 25.6 6.4 32 12.8 38.4 17.69 33.51 12.17 33.51 10.67 32 12.17 30.49 21.96 30.49 23.47 32 12.8 42.67 2.13 32 12.8 21.33 18.96 27.49 14.69 27.49 12.8 25.6"/><polygon class="cls-1" points="0 34.13 0 46.93 3.01 43.92 3.01 41.41 6.4 44.8 0 51.2 0 60.99 0 64 3.01 60.99 3.01 52.45 10.67 44.8 0 34.13"/><polygon class="cls-2" points="0 4.27 27.73 32 6.02 53.72 6.02 57.98 32 32 0 0 0 4.27"/></g></g></svg>