<svg xmlns="http://www.w3.org/2000/svg" viewBox="0 0 24 22.94"><defs><style>.cls-1{fill:#ffff00;}</style></defs><g id="Layer_2" data-name="Layer 2"><g id="Layer_1-2" data-name="Layer 1"><path class="cls-1" d="M21,0H3A3,3,0,0,0,0,3V22.19a.75.75,0,0,0,1.28.53l4.28-4.28A1.5,1.5,0,0,1,6.62,18H21a3,3,0,0,0,3-3V3A3,3,0,0,0,21,0Zm1.5,15A1.5,1.5,0,0,1,21,16.5H6.62a3,3,0,0,0-2.12.88l-3,3V3A1.5,1.5,0,0,1,3,1.5H21A1.5,1.5,0,0,1,22.5,3Z"/><path class="cls-1" d="M18.75,8.25H5.25a.75.75,0,0,0,0,1.5h13.5a.75.75,0,0,0,0-1.5Z"/><path class="cls-1" d="M12.75,12H5.25a.75.75,0,0,0,0,1.5h7.5a.75.75,0,0,0,0-1.5Z"/><path class="cls-1" d="M18.75,4.5H5.25a.75.75,0,0,0,0,1.5h13.5a.75.75,0,0,0,0-1.5Z"/></g></g></svg>