<?xml version="1.0" encoding="utf-8"?>
<!-- Generator: Adobe Illustrator 25.1.0, SVG Export Plug-In . SVG Version: 6.00 Build 0)  -->
<svg version="1.1" id="Layer_1" xmlns="http://www.w3.org/2000/svg" xmlns:xlink="http://www.w3.org/1999/xlink" x="0px" y="0px"
	 viewBox="0 0 871.7 558.4" style="enable-background:new 0 0 871.7 558.4;" xml:space="preserve">
<style type="text/css">
	.st0{fill:url(#SVGID_1_);}
	.st1{fill:url(#SVGID_2_);}
	.st2{fill:url(#SVGID_3_);}
	.st3{fill:url(#SVGID_4_);}
	.st4{fill:url(#SVGID_5_);}
	.st5{fill:url(#SVGID_6_);}
	.st6{fill:url(#SVGID_7_);}
	.st7{fill:url(#SVGID_8_);}
	.st8{fill:url(#SVGID_9_);}
	.st9{fill:url(#SVGID_10_);}
	.st10{fill:url(#SVGID_11_);}
	.st11{fill:url(#SVGID_12_);}
</style>
<image style="overflow:visible;enable-background:new    ;" width="1056" height="667" xlink:href="7B4AE327.jpg"  transform="matrix(0.5468 0 0 0.5467 -927.2136 257.7007)">
</image>
<linearGradient id="SVGID_1_" gradientUnits="userSpaceOnUse" x1="-638.15" y1="-584.7898" x2="-638.15" y2="-200.4642" gradientTransform="matrix(1 0 0 -1 0 40)">
	<stop  offset="0" style="stop-color:#9A9A9A"/>
	<stop  offset="9.000000e-02" style="stop-color:#A2A2A2"/>
	<stop  offset="0.24" style="stop-color:#B8B8B8"/>
	<stop  offset="0.42" style="stop-color:#DBDBDB"/>
	<stop  offset="0.45" style="stop-color:#E2E2E2"/>
	<stop  offset="1" style="stop-color:#C5C5C5"/>
</linearGradient>
<path class="st0" d="M-364.1,240.6h-548c-9.8-0.1-17.7,7.8-17.8,17.6l0,0v366.5h2.6V255.6c0-0.8,0.1-1.6,0.2-2.3
	c0-0.2,0.1-0.4,0.1-0.8c0-0.2,0.1-0.4,0.2-0.8c0.1-0.3,0.1-0.4,0.2-0.7c0.7-2,1.7-3.8,3-5.3c0.1-0.2,0.3-0.3,0.4-0.6
	c0.1-0.1,0.2-0.2,0.2-0.2c0.8-0.8,1.6-1.4,2.6-2.1c0.3-0.2,0.7-0.3,1-0.6c0.3-0.2,0.7-0.3,1-0.4l0,0l0.7-0.3l0,0
	c1.8-0.7,3.7-1,5.6-1L-364.1,240.6c2.4,0,5,0.7,7.2,1.8c0.3,0.2,0.7,0.3,1,0.6s0.8,0.6,1.2,0.9l0,0l0.6,0.4l0,0
	c0.2,0.2,0.6,0.4,0.8,0.8c0.1,0.1,0.2,0.2,0.2,0.2c0.2,0.2,0.3,0.3,0.4,0.6c2.4,2.7,3.7,6.2,3.7,9.8v369.1h2.6V257
	C-347.1,247.7-354.8,240.5-364.1,240.6z"/>
<linearGradient id="SVGID_2_" gradientUnits="userSpaceOnUse" x1="-638.2" y1="-218.0412" x2="-638.2" y2="-197.9945" gradientTransform="matrix(1 0 0 -1 0 40)">
	<stop  offset="0" style="stop-color:#404040"/>
	<stop  offset="0.28" style="stop-color:#434343"/>
	<stop  offset="0.45" style="stop-color:#4B4B4B"/>
	<stop  offset="0.59" style="stop-color:#595959"/>
	<stop  offset="0.71" style="stop-color:#6D6D6D"/>
	<stop  offset="0.82" style="stop-color:#888888"/>
	<stop  offset="0.92" style="stop-color:#A7A7A7"/>
	<stop  offset="1" style="stop-color:#C5C5C5"/>
</linearGradient>
<path class="st1" d="M-930,255.6c0.1-9.8,8.1-17.6,17.8-17.6l0,0h548c9.8,0,17.7,7.8,17.8,17.6v1.4c-0.7-9.3-8.4-16.4-17.8-16.4
	h-547.9c-9.8-0.1-17.7,7.8-17.8,17.6l0,0L-930,255.6z"/>
<rect x="-927.5" y="614.3" width="578.4" height="10.2"/>
<path d="M-349,255.7v358.7h-578.4V255.7c0-8.3,6.9-15.1,15.2-15.1h548C-355.8,240.6-349,247.2-349,255.7z"/>
<polygon points="-346.5,624.6 -346.5,625.5 -349,625.5 -349,625.5 -927.5,625.5 -927.5,625.5 -929.9,625.5 -929.9,624.6 "/>
<linearGradient id="SVGID_3_" gradientUnits="userSpaceOnUse" x1="-1001.1" y1="-591.5402" x2="-641.1" y2="-591.5402" gradientTransform="matrix(1 0 0 -1 0 40)">
	<stop  offset="0" style="stop-color:#929292"/>
	<stop  offset="1.000000e-02" style="stop-color:#C1C1C1"/>
	<stop  offset="3.000000e-02" style="stop-color:#B2B2B2"/>
	<stop  offset="5.000000e-02" style="stop-color:#9C9C9C"/>
	<stop  offset="7.000000e-02" style="stop-color:#A4A4A4"/>
	<stop  offset="9.000000e-02" style="stop-color:#AFAFAF"/>
	<stop  offset="1" style="stop-color:#CFCFCF"/>
</linearGradient>
<rect x="-1001.1" y="626.1" class="st2" width="360" height="10.9"/>
<linearGradient id="SVGID_4_" gradientUnits="userSpaceOnUse" x1="-1001.1" y1="-585.7899" x2="-281.1" y2="-585.7899" gradientTransform="matrix(1 0 0 -1 0 40)">
	<stop  offset="1.000000e-02" style="stop-color:#F8F8F8"/>
	<stop  offset="6.000000e-02" style="stop-color:#D0D0D0"/>
	<stop  offset="0.5" style="stop-color:#F8F8F8"/>
	<stop  offset="0.87" style="stop-color:#D0D0D0"/>
	<stop  offset="0.88" style="stop-color:#D3D3D3"/>
	<stop  offset="0.95" style="stop-color:#E9E9E9"/>
	<stop  offset="1" style="stop-color:#F1F1F1"/>
</linearGradient>
<rect x="-1001.1" y="625.5" class="st3" width="720" height="0.6"/>
<linearGradient id="SVGID_5_" gradientUnits="userSpaceOnUse" x1="-641.1" y1="-591.5402" x2="-281.1" y2="-591.5402" gradientTransform="matrix(1 0 0 -1 0 40)">
	<stop  offset="0" style="stop-color:#CFCFCF"/>
	<stop  offset="0.91" style="stop-color:#AFAFAF"/>
	<stop  offset="0.93" style="stop-color:#A4A4A4"/>
	<stop  offset="0.95" style="stop-color:#9C9C9C"/>
	<stop  offset="0.97" style="stop-color:#B2B2B2"/>
	<stop  offset="0.99" style="stop-color:#C1C1C1"/>
	<stop  offset="1" style="stop-color:#929292"/>
</linearGradient>
<rect x="-641.1" y="626.1" class="st4" width="360" height="10.9"/>
<linearGradient id="SVGID_6_" gradientUnits="userSpaceOnUse" x1="-1001.1" y1="-591.1902" x2="-641.1" y2="-591.1902" gradientTransform="matrix(1 0 0 -1 0 40)">
	<stop  offset="0" style="stop-color:#666666"/>
	<stop  offset="1.000000e-02" style="stop-color:#D5D5D5"/>
	<stop  offset="2.000000e-02" style="stop-color:#BDBDBD"/>
	<stop  offset="4.000000e-02" style="stop-color:#868686"/>
	<stop  offset="5.000000e-02" style="stop-color:#707070"/>
	<stop  offset="6.000000e-02" style="stop-color:#787878"/>
	<stop  offset="7.000000e-02" style="stop-color:#8E8E8E"/>
	<stop  offset="9.000000e-02" style="stop-color:#B2B2B2"/>
	<stop  offset="9.000000e-02" style="stop-color:#BCBCBC"/>
	<stop  offset="1" style="stop-color:#F1F1F1"/>
</linearGradient>
<rect x="-1001.1" y="626.1" class="st5" width="360" height="10.2"/>
<linearGradient id="SVGID_7_" gradientUnits="userSpaceOnUse" x1="-641.1" y1="-591.1902" x2="-281.1" y2="-591.1902" gradientTransform="matrix(1 0 0 -1 0 40)">
	<stop  offset="0" style="stop-color:#F1F1F1"/>
	<stop  offset="0.91" style="stop-color:#BCBCBC"/>
	<stop  offset="0.91" style="stop-color:#B2B2B2"/>
	<stop  offset="0.93" style="stop-color:#8E8E8E"/>
	<stop  offset="0.94" style="stop-color:#787878"/>
	<stop  offset="0.95" style="stop-color:#707070"/>
	<stop  offset="0.96" style="stop-color:#868686"/>
	<stop  offset="0.98" style="stop-color:#BDBDBD"/>
	<stop  offset="0.99" style="stop-color:#D5D5D5"/>
	<stop  offset="1" style="stop-color:#666666"/>
</linearGradient>
<rect x="-641.1" y="626.1" class="st6" width="360" height="10.2"/>
<linearGradient id="SVGID_8_" gradientUnits="userSpaceOnUse" x1="-692.3" y1="-589.6401" x2="-589.9" y2="-589.6401" gradientTransform="matrix(1 0 0 -1 0 40)">
	<stop  offset="0" style="stop-color:#9F9F9F"/>
	<stop  offset="4.000000e-02" style="stop-color:#ACACAC"/>
	<stop  offset="0.51" style="stop-color:#E5E5E5"/>
	<stop  offset="0.96" style="stop-color:#ACACAC"/>
	<stop  offset="1" style="stop-color:#9F9F9F"/>
</linearGradient>
<path class="st7" d="M-589.9,625.5c0,4.6-3.8,8.3-8.3,8.3l0,0H-684c-4.6,0-8.3-3.8-8.3-8.3l0,0H-589.9z"/>
<linearGradient id="SVGID_9_" gradientUnits="userSpaceOnUse" x1="-692.8135" y1="-589.9901" x2="-589.6135" y2="-589.9901" gradientTransform="matrix(1 0 0 -1 0 40)">
	<stop  offset="0" style="stop-color:#F7F7F7"/>
	<stop  offset="0.52" style="stop-color:#F8F8F8"/>
	<stop  offset="1" style="stop-color:#F7F7F7"/>
</linearGradient>
<path class="st8" d="M-589.9,625.5c0,4.6-3.8,8.3-8.3,8.3l0,0H-684c-4.6,0-8.3-3.8-8.3-8.3l0,0h-0.4v0.7c0,4.6,3.8,8.3,8.3,8.3h86.6
	c4.6,0,8.3-3.8,8.3-8.3l0,0v-0.7H-589.9z"/>
<linearGradient id="SVGID_10_" gradientUnits="userSpaceOnUse" x1="-641.1" y1="-606.5707" x2="-641.1" y2="-596.9679" gradientTransform="matrix(1 0 0 -1 0 40)">
	<stop  offset="0" style="stop-color:#575757"/>
	<stop  offset="0.74" style="stop-color:#B9B9B9"/>
	<stop  offset="0.85" style="stop-color:#B6B6B6"/>
	<stop  offset="0.94" style="stop-color:#ACACAC"/>
	<stop  offset="1" style="stop-color:#9F9F9F"/>
</linearGradient>
<path class="st9" d="M-1001.1,637c25.6,6.4,51.8,9.7,78.2,9.6h563.6c26.3,0,52.7-3.2,78.2-9.6H-1001.1z"/>
<linearGradient id="SVGID_11_" gradientUnits="userSpaceOnUse" x1="-862.6835" y1="-169.6481" x2="-413.9165" y2="-618.4061" gradientTransform="matrix(1 0 0 -1 0 40)">
	<stop  offset="0" style="stop-color:#F2F3F4"/>
	<stop  offset="0.36" style="stop-color:#EDEEEF"/>
	<stop  offset="0.78" style="stop-color:#DFE0E0"/>
	<stop  offset="1" style="stop-color:#D5D6D6"/>
</linearGradient>
<rect x="-915.5" y="262.5" class="st10" width="554.4" height="343.1"/>
<linearGradient id="SVGID_12_" gradientUnits="userSpaceOnUse" x1="-538.4833" y1="-373.8571" x2="-239.9167" y2="-672.4143" gradientTransform="matrix(1 0 0 -1 0 40)">
	<stop  offset="0" style="stop-color:#F2F3F4"/>
	<stop  offset="0.36" style="stop-color:#EDEEEF"/>
	<stop  offset="0.78" style="stop-color:#DFE0E0"/>
	<stop  offset="1" style="stop-color:#D5D6D6"/>
</linearGradient>
<rect x="-483.3" y="358.7" class="st11" width="188.2" height="408.9"/>
<image style="overflow:visible;enable-background:new    ;" width="934" height="1887" xlink:href="7B4AE321.png"  transform="matrix(0.2289 0 0 0.2289 -494.9858 346.0009)">
</image>
<image style="overflow:visible;" width="1182" height="751" xlink:href="7B4AE32D.jpg"  transform="matrix(0.4695 0 0 0.4695 -915 262.4)">
</image>
</svg>
