<svg xmlns="http://www.w3.org/2000/svg" viewBox="0 0 28.78 64"><defs><style>.cls-1{fill:#6cac48;}.cls-2{fill:#599636;}.cls-3{fill:#c0bdbd;}</style></defs><g id="Layer_2" data-name="Layer 2"><g id="Layer_1-2" data-name="Layer 1"><path class="cls-1" d="M13.13,56.14a25.12,25.12,0,0,1-2.19-1.79,35.58,35.58,0,0,1-7.36-9.24,29.89,29.89,0,0,1-2.34-5.53A16.18,16.18,0,0,1,.76,37.2C.49,35.5.29,33.79.14,32.07.08,31.34,0,30.6,0,29.87a16.83,16.83,0,0,1,.13-2.46,39.73,39.73,0,0,1,.73-4.73,36,36,0,0,1,8.2-16.4A28.26,28.26,0,0,1,12,3.41a11.47,11.47,0,0,0,1-1A3.46,3.46,0,0,0,14,.23a.77.77,0,0,1,0-.15A.11.11,0,0,1,14.1,0c.05,0,.07,0,.09.07a2.76,2.76,0,0,0,.08.27.84.84,0,0,0-.08.49c0,1.23,0,2.46.05,3.69.07,2.59,0,5.17.06,7.76.08,2.77,0,5.55.07,8.32.08,2.54,0,5.09.06,7.63.07,3,0,6,.07,9,.06,2.31,0,4.63.06,6.94,0,1.33,0,2.67,0,4-.18.16-.16.38-.18.59-.06.7-.09,1.4-.15,2.1-.12,1.33-.37,2.64-.61,3.95A2.94,2.94,0,0,1,13.13,56.14Z"/><path class="cls-2" d="M14.56,48.19c0-1.33,0-2.67,0-4-.09-2.31,0-4.63-.06-6.94-.08-3,0-6-.07-9-.06-2.54,0-5.09-.06-7.63-.08-2.77,0-5.55-.07-8.32-.07-2.59,0-5.17-.06-7.76,0-1.23,0-2.46-.05-3.69a.84.84,0,0,1,.08-.49.69.69,0,0,1,.17.27c.38.71.77,1.42,1.14,2.14A8.53,8.53,0,0,0,17.21,5q1.37,1.38,2.64,2.85a35.63,35.63,0,0,1,5.44,8.53A42.38,42.38,0,0,1,28,24.09a29.87,29.87,0,0,1,.74,5.15,34.62,34.62,0,0,1,0,4.44,29.51,29.51,0,0,1-5.31,15.07,31.32,31.32,0,0,1-4.06,4.77A23.27,23.27,0,0,1,17,55.47a.39.39,0,0,1-.19.1,2.21,2.21,0,0,1-1-1,5.81,5.81,0,0,1-.56-1.31A18.33,18.33,0,0,1,14.56,48.19Z"/><path class="cls-3" d="M14.56,48.19a18.33,18.33,0,0,0,.65,5.11,5.81,5.81,0,0,0,.56,1.31,2.21,2.21,0,0,0,1,1l-.11.2a5.08,5.08,0,0,0-.83,2.38c0,.44-.07.88-.07,1.32q0,.93,0,1.86a18.14,18.14,0,0,0,.08,2.21,1.1,1.1,0,0,1,0,.18c0,.27-.14.34-.36.23a10,10,0,0,0-1-.38c-.33-.13-.38-.17-.38-.53a23.3,23.3,0,0,0-.14-2.89,17.15,17.15,0,0,0-.69-3.55c-.05-.15-.08-.3-.12-.46a2.94,2.94,0,0,0,.49-1.31c.24-1.31.49-2.62.61-3.95.06-.7.09-1.4.15-2.1C14.4,48.57,14.38,48.35,14.56,48.19Z"/></g></g></svg>