<svg xmlns="http://www.w3.org/2000/svg" viewBox="0 0 56 64"><defs><style>.cls-1{fill:#549e44;}</style></defs><g id="Layer_2" data-name="Layer 2"><g id="Layer_1-2" data-name="Layer 1"><path class="cls-1" d="M0,32c0-4.34,0-8.68,0-13a5.32,5.32,0,0,1,2.83-5C10.35,9.6,17.84,5.17,25.35.77a5,5,0,0,1,5.3,0C38.22,5.2,45.77,9.66,53.34,14.09A5.08,5.08,0,0,1,56,18.77Q56,32,56,45.32A5.07,5.07,0,0,1,53.36,50c-7.54,4.43-15.07,8.89-22.64,13.28a5,5,0,0,1-5.28,0c-2.61-1.54-5.18-3.12-7.77-4.69a2.48,2.48,0,0,1-.26-.19c-.32-.27-.31-.51.09-.63a16.21,16.21,0,0,0,3.57-1.63c.31-.19.59,0,.84.17,1.81,1.09,3.62,2.18,5.41,3.29a1.07,1.07,0,0,0,1.26,0q11.27-6.64,22.56-13.25a1.13,1.13,0,0,0,.62-1.11q0-13.23,0-26.46a1.13,1.13,0,0,0-.62-1.11Q39.82,11,28.51,4.4a1,1,0,0,0-1.14,0Q16.09,11,4.81,17.59a1.22,1.22,0,0,0-.66,1.19q0,13.2,0,26.41a1.21,1.21,0,0,0,.68,1.18c1.94,1.11,3.86,2.24,5.79,3.36a5.12,5.12,0,0,0,3.05.76,3,3,0,0,0,2.68-2.85c0-.67,0-1.35,0-2V21.19c0-.92.19-1.11,1.1-1.11h2.43a.75.75,0,0,1,.83.82,1.77,1.77,0,0,1,0,.23V47.31a8.94,8.94,0,0,1-.92,4.34,5.92,5.92,0,0,1-4.56,3.09,10.29,10.29,0,0,1-6.87-1.48C6.47,52.18,4.59,51.07,2.69,50A5,5,0,0,1,0,45.32C0,40.88,0,36.45,0,32Z"/><path class="cls-1" d="M35,45.32a20.85,20.85,0,0,1-5.78-.7,8.6,8.6,0,0,1-5-3.27,8,8,0,0,1-1.34-4.63.7.7,0,0,1,.77-.78h2.84a.66.66,0,0,1,.74.64c0,.21.1.42.14.63a4.14,4.14,0,0,0,3.4,3.54,19.42,19.42,0,0,0,5,.42,13.91,13.91,0,0,0,3.52-.43A4.62,4.62,0,0,0,41,40a3.11,3.11,0,0,0,1.08-3.15,1.85,1.85,0,0,0-1.16-1.34,9.87,9.87,0,0,0-3.14-.92c-2.26-.32-4.53-.6-6.78-.94a12.55,12.55,0,0,1-4.25-1.34,5.35,5.35,0,0,1-3-4.33,7.08,7.08,0,0,1,.91-4.72,7.27,7.27,0,0,1,3.49-2.87,17.2,17.2,0,0,1,7.45-1,16.76,16.76,0,0,1,4.7.83,7.55,7.55,0,0,1,5.25,6c.07.4.12.8.16,1.19a.71.71,0,0,1-.75.88H42.2a.69.69,0,0,1-.75-.6,9.83,9.83,0,0,0-.3-1,4,4,0,0,0-3.06-2.77,15.63,15.63,0,0,0-7.23,0,4.34,4.34,0,0,0-1.15.44,2.74,2.74,0,0,0-1.35,3.19,1.44,1.44,0,0,0,.85,1,10.36,10.36,0,0,0,2.88.84c2.51.49,5.06.7,7.57,1.2a14.89,14.89,0,0,1,4.1,1.37,5.25,5.25,0,0,1,2.85,4.25,7.4,7.4,0,0,1-1.53,5.82,8.52,8.52,0,0,1-4.16,2.64A18.72,18.72,0,0,1,35,45.32Z"/></g></g></svg>