<svg xmlns="http://www.w3.org/2000/svg" viewBox="0 0 24 24"><defs><style>.cls-1{fill:#ffff00;}</style></defs><g id="Layer_2" data-name="Layer 2"><g id="Layer_1-2" data-name="Layer 1"><path class="cls-1" d="M5.48,2a1,1,0,0,0-1.43-.18L4,1.9,2.41,3.45a2.58,2.58,0,0,0-.68,2.66A26.51,26.51,0,0,0,8,16a26.42,26.42,0,0,0,9.92,6.25,2.55,2.55,0,0,0,2.65-.68L22.1,20a1,1,0,0,0,0-1.44L22,18.52l-3.46-2.69a1,1,0,0,0-.87-.18l-3.29.82a2.62,2.62,0,0,1-2.48-.69L8.22,12.09a2.62,2.62,0,0,1-.69-2.48l.83-3.29a1,1,0,0,0-.19-.87ZM2.83.77a2.6,2.6,0,0,1,3.7,0A1.57,1.57,0,0,1,6.74,1l2.7,3.46a2.64,2.64,0,0,1,.47,2.24L9.09,10a1,1,0,0,0,.26,1L13,14.65a1,1,0,0,0,1,.26l3.28-.82a2.61,2.61,0,0,1,2.24.48L23,17.26a2.61,2.61,0,0,1,.24,3.91l-1.55,1.55a4.17,4.17,0,0,1-4.31,1.06A28.12,28.12,0,0,1,6.85,17.15,28.12,28.12,0,0,1,.22,6.63,4.17,4.17,0,0,1,1.28,2.32L2.83.77Z"/></g></g></svg>