<svg xmlns="http://www.w3.org/2000/svg" viewBox="0 0 64 48.06"><defs><style>.cls-1{fill:#cb6698;}</style></defs><g id="Layer_2" data-name="Layer 2"><g id="Layer_1-2" data-name="Layer 1"><path class="cls-1" d="M30.65,0c0,.14.11.09.18.09a16.63,16.63,0,0,1,3.5.66,11.1,11.1,0,0,1,3.14,1.51,6.47,6.47,0,0,1,2.84,5.36A10.44,10.44,0,0,1,39,12.92a16.43,16.43,0,0,1-9.63,8,22.27,22.27,0,0,1-8.14,1.21,8.25,8.25,0,0,1-4.88-1.61,4.18,4.18,0,0,1-1.52-1.93,1.13,1.13,0,0,1-.08-.54.3.3,0,0,1,.5-.22,1,1,0,0,1,.18.17,6,6,0,0,0,3.48,1.83,11.84,11.84,0,0,0,4.4-.06,19.91,19.91,0,0,0,8.27-3.35,14.21,14.21,0,0,0,4.37-4.75A6.74,6.74,0,0,0,36.86,8a3.31,3.31,0,0,0-1.49-2.7,7.6,7.6,0,0,0-3.08-1.16,18.46,18.46,0,0,0-6.87.22A33.28,33.28,0,0,0,16,7.84a39.49,39.49,0,0,0-6.1,3.91,16.5,16.5,0,0,0-4,4.34,7.87,7.87,0,0,0-1.17,3.52A6.05,6.05,0,0,0,6,23.78,17.4,17.4,0,0,0,9.3,27c1.4,1.12,2.86,2.17,4.21,3.36a14.21,14.21,0,0,1,1.18,1.15.2.2,0,0,0,.29,0l6.08-3.32a.93.93,0,0,0,.28-.28,10.51,10.51,0,0,1,3.95-3.26,3.61,3.61,0,0,1,1.62-.38,1.83,1.83,0,0,1,1.88,1.41,5.63,5.63,0,0,1,.09,2.38c0,.09,0,.17,0,.25a.24.24,0,0,0,.19-.08,1.35,1.35,0,0,1,1.75.17.77.77,0,0,1,.19.79c-.31,1.2-.64,2.41-.94,3.62a25.15,25.15,0,0,0-.71,3.32,3.89,3.89,0,0,0,0,1.13c0,.06,0,.15.07.16s.11-.06.15-.12.21-.32.3-.49c1.37-2.58,2.48-5.29,3.69-7.95.64-1.43,1.28-2.86,1.87-4.31A13,13,0,0,0,36,22.76a.69.69,0,0,1,.51-.55A6.22,6.22,0,0,1,39.2,22a1.21,1.21,0,0,1,.45.16.51.51,0,0,1,.27.71,13,13,0,0,0-.66,2.35,6.88,6.88,0,0,0,.6,4.07l.38.77.45-.74c1.1-1.88,2.18-3.76,3.09-5.74a12.43,12.43,0,0,0,.59-1.91c.08-.28.18-.55.25-.83a.7.7,0,0,1,.49-.52A6.15,6.15,0,0,1,46.86,20a3.86,3.86,0,0,1,1.12.09,1.23,1.23,0,0,1,.4.19.46.46,0,0,1,.2.63,13.42,13.42,0,0,0-.66,2.35,7,7,0,0,0,.56,4.05c.24.49.5,1,.73,1.45.07.15.14.16.28.09a13,13,0,0,1,6.42-1.23,9.28,9.28,0,0,1,5.8,2.19A6.35,6.35,0,0,1,64,33.78a5.61,5.61,0,0,1,0,1.49A4.25,4.25,0,0,1,62.25,38a3.13,3.13,0,0,1-1.41.67c-.17,0-.34.06-.42-.16s.08-.29.21-.38a6,6,0,0,0,.88-.65,3.12,3.12,0,0,0,1.13-2.85,4.33,4.33,0,0,0-.94-2.12,6.45,6.45,0,0,0-3.26-2.16,13.55,13.55,0,0,0-5.29-.54,10.88,10.88,0,0,0-3,.69c-.16.06-.19.12-.13.29a5.47,5.47,0,0,1,.26.81,4,4,0,0,1-.67,3.85,8.35,8.35,0,0,1-4.77,2.87A1.47,1.47,0,0,1,43,36.82a4.92,4.92,0,0,1,.54-2.32,11.42,11.42,0,0,1,3-3.73.26.26,0,0,0,.09-.39A13.34,13.34,0,0,1,45.34,27c-.11-.5-.23-1-.35-1.54a.9.9,0,0,0-.07.11,49.87,49.87,0,0,1-3.69,6.26.29.29,0,0,0,0,.32A8.82,8.82,0,0,1,41.79,34a4.51,4.51,0,0,1-1.61,4.61,8.2,8.2,0,0,1-4.52,1.79,3.31,3.31,0,0,1-1.36-.1A1,1,0,0,1,33.63,39a1.89,1.89,0,0,1,.25-.54l.62-.82c1.21-1.52,2.55-2.93,3.66-4.53a.38.38,0,0,0,.05-.46,16.74,16.74,0,0,1-1.79-5c0-.08,0-.18-.09-.25l-.12.29c-.77,1.91-1.58,3.81-2.48,5.67s-2,3.9-3,5.8A5.5,5.5,0,0,1,29.07,41a1.47,1.47,0,0,1-1.52.16A1.76,1.76,0,0,1,26.66,40a6.14,6.14,0,0,1-.26-1.9c0-.61.06-1.22.12-1.84a1.34,1.34,0,0,0-.12.24c-.5,1.22-1,2.42-1.65,3.59a7.53,7.53,0,0,1-.88,1.36,2.28,2.28,0,0,1-3.46-.15,9,9,0,0,1-1.58-5.5,14.43,14.43,0,0,1,.79-4.46v-.06l-.05,0c-1.17.58-2.28,1.27-3.41,1.92-.09.06-.1.11-.06.21a4.84,4.84,0,0,1,.28.66A10.94,10.94,0,0,1,14.14,44.6,10.18,10.18,0,0,1,7.84,48a8,8,0,0,1-2.61,0,3.13,3.13,0,0,1-2.59-1.81l-.13-.27a6,6,0,0,1,0-4.58A8.49,8.49,0,0,1,5,37.81a29.72,29.72,0,0,1,5.76-3.92L12.51,33a1.12,1.12,0,0,0-.32-.3c-1.12-.91-2.33-1.7-3.52-2.53a42.1,42.1,0,0,1-5-3.86A11.53,11.53,0,0,1,.05,20.54a9.47,9.47,0,0,1,0-1.92A10.33,10.33,0,0,1,2,14.1,24.47,24.47,0,0,1,7.51,8.37a44.78,44.78,0,0,1,10.4-5.86A34.77,34.77,0,0,1,23.15.73a27,27,0,0,1,4-.64c.05,0,.18.06.16-.09ZM14.38,36.67a9.37,9.37,0,0,0-.27-2.22c0-.13-.07-.17-.21-.09a35.83,35.83,0,0,0-5.12,3.53,7.94,7.94,0,0,0-2.48,3.3A4.1,4.1,0,0,0,6,43.24a1.27,1.27,0,0,0,1.14,1.18,3.64,3.64,0,0,0,1.7-.18A8.19,8.19,0,0,0,14.38,36.67Zm7.7-1v.3a5,5,0,0,0,.35,2c.23.53.52.57.88.13a4.68,4.68,0,0,0,.63-1,67.36,67.36,0,0,0,2.55-6.53,17.11,17.11,0,0,0,.73-2.7c.05-.28.19-.62-.1-.84s-.61-.06-.9.07a3.8,3.8,0,0,0-1.51,1.24A12.27,12.27,0,0,0,22.08,35.64Zm25.79-2.76a3.74,3.74,0,0,0-.13-.88c-.05-.21-.11-.17-.23-.06a8,8,0,0,0-2.26,3.62,1.45,1.45,0,0,0-.08.54c0,.15,0,.23.24.16A3.49,3.49,0,0,0,47.87,32.88ZM39.18,34.7a40,40,0,0,1-2.74,3.21c-.1.11-.21.22-.3.33s-.11.11-.07.18.13,0,.19,0a1.46,1.46,0,0,0,.41-.16,6.78,6.78,0,0,0,1.8-1.53A3.05,3.05,0,0,0,39.18,34.7Z"/><path d="M19.57,31.33l.05,0v.06Z"/></g></g></svg>