<svg xmlns="http://www.w3.org/2000/svg" viewBox="0 0 24 15"><defs><style>.cls-1{fill:#ffff00;}</style></defs><g id="Layer_2" data-name="Layer 2"><g id="Layer_1-2" data-name="Layer 1"><path class="cls-1" d="M7.47,1.5a.76.76,0,0,0-.59.28L2.31,7.5H9a.76.76,0,0,1,.75.75,2.25,2.25,0,0,0,4.5,0A.76.76,0,0,1,15,7.5h6.69L17.11,1.78a.72.72,0,0,0-.58-.28ZM22.4,9H15.67A3.75,3.75,0,0,1,8.32,9H1.6l.48,3.84a.75.75,0,0,0,.74.66H21.18a.75.75,0,0,0,.74-.66L22.4,9ZM5.71.84A2.27,2.27,0,0,1,7.47,0h9.06a2.27,2.27,0,0,1,1.76.84l5.55,6.94a.75.75,0,0,1,.15.56L23.41,13a2.25,2.25,0,0,1-2.23,2H2.82A2.25,2.25,0,0,1,.59,13L0,8.34a.75.75,0,0,1,.15-.56L5.71.84Z"/></g></g></svg>