<svg xmlns="http://www.w3.org/2000/svg" viewBox="0 0 64 52.4"><defs><style>.cls-1{fill:#ea524f;}.cls-2{fill:#fefefe;}</style></defs><g id="Layer_2" data-name="Layer 2"><g id="Layer_1-2" data-name="Layer 1"><path class="cls-1" d="M9.34,27.36c-.75.36-1.49.75-2.26,1.08a6.69,6.69,0,0,1-3.61.63A3.62,3.62,0,0,1,.58,26.83,8.7,8.7,0,0,1,0,25.12a.73.73,0,0,1,.35-.9A36.76,36.76,0,0,0,6.3,19.06,49.93,49.93,0,0,0,13.53,8.93C14.41,7.31,15.1,5.61,16,4A10.19,10.19,0,0,1,18.1,1.19,3.56,3.56,0,0,1,22.91.72a5.14,5.14,0,0,1,2.53,4.49,28,28,0,0,1-1,8.23c-1.28,5.24-2.72,10.43-3.86,15.7a41.25,41.25,0,0,0-1,7.9,9.54,9.54,0,0,0,.62,3.7,1.82,1.82,0,0,0,3.06.88,15.32,15.32,0,0,0,2.9-3.27,107.7,107.7,0,0,0,9.48-15.68c2.12-4.17,4.3-8.31,6.43-12.48A4,4,0,0,1,45.9,7.81,4.3,4.3,0,0,1,50,10.4a13.93,13.93,0,0,1,1.28,5.5q.28,7.74.62,15.47a5.34,5.34,0,0,0,.56,2.25A2.19,2.19,0,0,0,55,34.82a5.51,5.51,0,0,0,1.88-.89c1.51-1,2.85-2.26,4.25-3.42,1.23-1,1.92-.87,2.5.64a6.1,6.1,0,0,1-.17,4.33A11.64,11.64,0,0,1,55.29,43a11.86,11.86,0,0,1-7.31,0,8.12,8.12,0,0,1-5.12-5.28,23.88,23.88,0,0,1-1.1-5.69c-.22-1.9-.41-3.8-.63-5.86l-.33.66c-2.22,4.41-4.37,8.86-6.87,13.12a33.32,33.32,0,0,1-8.08,9.56,13,13,0,0,1-6,2.67A9.46,9.46,0,0,1,9.14,46.52a18.6,18.6,0,0,1-1.42-9,71.64,71.64,0,0,1,1.56-9.32,1.36,1.36,0,0,0,.06-.82h.08v0Z"/><path class="cls-2" d="M9.34,27.36l.07-.06v0H9.34Z"/></g></g></svg>